<?xml version="1.0" encoding="UTF-8"?><svg version="1.1" width="24px" height="24px" viewBox="0 0 24.0 24.0" xmlns="http://www.w3.org/2000/svg" xmlns:xlink="http://www.w3.org/1999/xlink"><defs><clipPath id="i0"><path d="M1440,0 L1440,1061 L0,1061 L0,0 L1440,0 Z"></path></clipPath><clipPath id="i1"><path d="M15.2966613,9.77777778 C15.7362426,9.77777778 16,10.1632774 16,10.5488006 L16,17.006755 C16,17.4886883 15.6483736,17.7777778 15.2966613,17.7777778 L0.703338686,17.7777778 C0.263757373,17.7777778 0,17.3922781 0,17.006755 L0,10.5488006 C0,10.0668672 0.351626417,9.77777778 0.703338686,9.77777778 L15.2966613,9.77777778 Z M14.3286111,11.5555556 L1.77777778,11.5555556 L1.77777778,16 L14.3286111,16 L14.3286111,11.5555556 Z M7.58173088,12.9417102 C7.79085268,12.9417102 8,13.1639358 8,13.3861342 L8,14.275091 C8,14.4972894 7.79085268,14.7194879 7.58173088,14.7194879 L6.64049134,14.7194879 C6.43134401,14.7194879 6.22222222,14.4972894 6.22222222,14.275091 L6.22222222,13.3861342 C6.22222222,13.1639358 6.43134401,12.9417102 6.64049134,12.9417102 L7.58173088,12.9417102 Z M4.88890923,12.9417102 C5.11113485,12.9417102 5.33333333,13.1639358 5.33333333,13.3861342 L5.33333333,14.275091 C5.33333333,14.4972894 5.11113485,14.7194879 4.88890923,14.7194879 L3.99997965,14.7194879 C3.77775404,14.7194879 3.55555556,14.4972894 3.55555556,14.275091 L3.55555556,13.3861342 C3.55555556,13.1639358 3.77775404,12.9417102 3.99997965,12.9417102 L4.88890923,12.9417102 Z M15.2966613,0 C15.7362426,0 16,0.385517503 16,0.771129132 L16,7.22887087 C16,7.71082069 15.6483736,8 15.2966613,8 L0.703338686,8 C0.263757373,8 0,7.6144825 0,7.22887087 L0,0.867443796 C0,0.385517503 0.351626417,0.0964323218 0.703338686,0.0964323218 L15.2966613,0 Z M14.3286111,1.77777778 L1.77777778,1.77777778 L1.77777778,6.22222222 L14.3286111,6.22222222 L14.3286111,1.77777778 Z M7.58173088,3.16372982 C7.79085268,3.16372982 8,3.3859283 8,3.60812679 L8,4.49697499 C8,4.71928198 7.79085268,4.9415076 7.58173088,4.9415076 L6.64049134,4.9415076 C6.43134401,4.9415076 6.22222222,4.71928198 6.22222222,4.49697499 L6.22222222,3.60812679 C6.22222222,3.3859283 6.43134401,3.16372982 6.64049134,3.16372982 L7.58173088,3.16372982 Z M4.88890923,3.16372982 C5.11113485,3.16372982 5.33333333,3.3859283 5.33333333,3.60812679 L5.33333333,4.49697499 C5.33333333,4.71928198 5.11113485,4.9415076 4.88890923,4.9415076 L3.99997965,4.9415076 C3.77775404,4.9415076 3.55555556,4.71928198 3.55555556,4.49697499 L3.55555556,3.60812679 C3.55555556,3.3859283 3.77775404,3.16372982 3.99997965,3.16372982 L4.88890923,3.16372982 Z"></path></clipPath></defs><g transform="translate(-23.0 -649.0)"><g clip-path="url(#i0)"><g transform="translate(9.0 639.0)"><g transform="translate(14.0 10.0)"><g transform="translate(4.0 3.0)"><g clip-path="url(#i1)"><polygon points="0,0 16,0 16,17.7777778 0,17.7777778 0,0" stroke="none" fill=""></polygon></g></g></g></g></g></g></svg>