<?xml version="1.0" encoding="UTF-8"?><svg version="1.1" width="24px" height="24px" viewBox="0 0 24.0 24.0" xmlns="http://www.w3.org/2000/svg" xmlns:xlink="http://www.w3.org/1999/xlink"><defs><clipPath id="i0"><path d="M1440,0 L1440,1061 L0,1061 L0,0 L1440,0 Z"></path></clipPath><clipPath id="i1"><path d="M10.8571516,9.5 C13.6943343,9.50750094 15.9924098,11.805669 16,14.6428555 L16,16.357111 C16,16.988284 15.4882847,17.5 14.8571126,17.5 C14.2259181,17.5 13.7142921,16.988284 13.7142921,16.357111 L13.7142921,14.6428555 C13.7142921,13.8851265 13.4132726,13.1583834 12.8774025,12.6226019 C12.3416217,12.086731 11.6148573,11.7856888 10.8571516,11.7856888 L5.14284837,11.7856888 C4.38514269,11.7856888 3.65837834,12.086731 3.12250824,12.6226019 C2.58672743,13.1583834 2.28570791,13.8851265 2.28570791,14.6428555 L2.28570791,16.357111 C2.28570791,16.988284 1.77408188,17.5 1.14288744,17.5 C0.511715322,17.5 0,16.988284 0,16.357111 L0,14.6428555 C0.00750093134,11.805669 2.30566574,9.50750094 5.14284837,9.5 L10.8571516,9.5 Z M8.5,0 C10.7091433,0 12.5,1.79085673 12.5,4 C12.5,6.20916281 10.7091433,8 8.5,8 C6.29085673,8 4.5,6.20916281 4.5,4 C4.5,1.79085673 6.29085673,0 8.5,0 Z M8.52506518,2.05097555 C7.99459485,2.05097555 7.48587544,2.26172496 7.11084553,2.63675304 C6.73573748,3.01187879 6.52506518,3.52057618 6.52506518,4.05097555 C6.52506518,5.15554937 7.42049573,6.05097555 8.52506518,6.05097555 C9.62963463,6.05097555 10.5250652,5.15554937 10.5250652,4.05097555 C10.5250652,2.94640173 9.62963463,2.05097555 8.52506518,2.05097555 Z"></path></clipPath></defs><g transform="translate(-23.0 -121.0)"><g clip-path="url(#i0)"><g transform="translate(9.0 111.0)"><g transform="translate(14.0 10.0)"><g transform="translate(4.0 3.5)"><g clip-path="url(#i1)"><polygon points="0,0 16,0 16,17.5 0,17.5 0,0" stroke="none" fill=""></polygon></g></g></g></g></g></g></svg>