<?xml version="1.0" encoding="UTF-8"?><svg version="1.1" width="24px" height="24px" viewBox="0 0 24.0 24.0" xmlns="http://www.w3.org/2000/svg" xmlns:xlink="http://www.w3.org/1999/xlink"><defs><clipPath id="i0"><path d="M1440,0 L1440,1061 L0,1061 L0,0 L1440,0 Z"></path></clipPath><clipPath id="i1"><path d="M18,0 L18,18 L0,18 L0,0 L18,0 Z"></path></clipPath><clipPath id="i2"><path d="M9.00157632,0 C13.7530768,0 17.6249119,3.68582622 17.9596051,8.35134321 C17.9847494,8.39077294 18.0030758,9.00040183 18.0030758,9.00040183 C18.0030758,9.14234887 17.8879401,9.25702159 17.7457634,9.25702159 L16.2026836,9.25702159 C16.0608914,9.25702159 15.9453456,9.14234887 15.9453456,9.00040183 L15.9453456,8.74267704 L15.932453,8.74267704 C15.796069,5.02837099 12.7499712,2.05732799 9.00157632,2.05732799 C5.16629145,2.05732799 2.05770455,5.16552117 2.05770455,9.00040183 C2.05770455,12.8344788 5.16629145,15.942672 9.00157632,15.942672 C10.656716,15.942672 12.1672441,15.3535617 13.3590985,14.3856747 L11.5331776,12.6869313 L16.4598935,12.6869313 L16.4598935,17.4860573 L14.8201838,15.8463329 C13.2507807,17.1833022 11.2253972,18 9.00157632,18 C4.03000568,18 0,13.9708086 0,9.00040183 C0,4.02959323 4.03000568,0 9.00157632,0 Z"></path></clipPath><clipPath id="i3"><path d="M1.83272465,0 L3.48350859,2.110485 L5.19488135,0 L6.951285,0 L4.85795873,2.44324531 L7,2.44324531 L7,3.90207169 L4.39278894,3.90207169 L4.39278894,5.25644051 L7,5.25644051 L7,6.72052821 L4.39278894,6.72052821 L4.39278894,9 L2.66867112,9 L2.66867112,6.72052821 L0.00144377629,6.72052821 L0.00144377629,5.25644051 L2.66867112,5.25644051 L2.66867112,3.90207169 L0.00144377629,3.90207169 L0.00144377629,2.44324531 L2.11002927,2.44324531 L0,0 L1.83272465,0 Z"></path></clipPath></defs><g transform="translate(-23.0 -209.0)"><g clip-path="url(#i0)"><g transform="translate(9.0 199.0)"><g transform="translate(14.0 10.0)"><g transform="translate(3.0 3.0)"><g clip-path="url(#i1)"><g transform="translate(-0.0030757532391518794 0.0)"><g clip-path="url(#i2)"><polygon points="0.00307575324,0 18.0030758,0 18.0030758,18 0.00307575324,18 0.00307575324,0" stroke="none" fill=""></polygon></g></g></g><g transform="translate(5.524443690456902 4.8470285486433795)"><g clip-path="url(#i3)"><polygon points="0,0 7,0 7,9 0,9 0,0" stroke="none" fill=""></polygon></g></g></g></g></g></g></g></svg>