<?xml version="1.0" encoding="UTF-8"?><svg version="1.1" width="24px" height="24px" viewBox="0 0 24.0 24.0" xmlns="http://www.w3.org/2000/svg" xmlns:xlink="http://www.w3.org/1999/xlink"><defs><clipPath id="i0"><path d="M1440,0 L1440,1061 L0,1061 L0,0 L1440,0 Z"></path></clipPath><clipPath id="i1"><path d="M15.9996237,0.000376324395 L15.9912028,6.61916801 C16.0417279,7.11599843 15.8733109,7.61282885 15.519635,7.95808389 L7.95770756,15.5200113 C7.31772262,16.1599962 6.28195751,16.1599962 5.64197256,15.5200113 L0.47998871,10.3580274 C-0.159996237,9.71804249 -0.159996237,8.68227738 0.47998871,8.04229244 L8.04191611,0.480365035 C8.38717115,0.126689143 8.88400157,-0.0417279484 9.38083199,0.00879717896 L15.9996237,0.000376324395 Z M14,2 L9.21594684,2 L2,9.11229236 L6.88770764,14 L14,6.78405316 L14,2 Z M10,4 L12,6 L10,8 L8,6 L10,4 Z"></path></clipPath></defs><g transform="translate(-23.0 -77.0)"><g clip-path="url(#i0)"><g transform="translate(23.0 77.0)"><g transform="translate(4.0 4.0)"><g clip-path="url(#i1)"><polygon points="0,5.55111512e-17 16,5.55111512e-17 16,16 0,16 0,5.55111512e-17" stroke="none" fill=""></polygon></g></g></g></g></g></svg>