<?xml version="1.0" encoding="UTF-8"?><svg version="1.1" width="24px" height="24px" viewBox="0 0 24.0 24.0" xmlns="http://www.w3.org/2000/svg" xmlns:xlink="http://www.w3.org/1999/xlink"><defs><clipPath id="i0"><path d="M1440,0 L1440,1061 L0,1061 L0,0 L1440,0 Z"></path></clipPath><clipPath id="i1"><path d="M12.0558899,0 C13.1295923,0 14,0.812427111 14,1.81460674 L14,15.1853933 C14,16.1875729 13.1295923,17 12.0558899,17 L1.94411006,17 C0.870407722,17 0,16.1875729 0,15.1853933 L0,1.81460674 C0,0.812427111 0.870407722,0 1.94411006,0 Z M12,2 L2,2 L2,15 L12,15 L12,2 Z"></path></clipPath><clipPath id="i2"><path d="M4.1,0 C4.59705627,-3.13352361e-16 5,0.402943725 5,0.9 C5,1.39705627 4.59705627,1.8 4.1,1.8 L0.9,1.8 C0.402943725,1.8 6.08718376e-17,1.39705627 0,0.9 C-6.08718376e-17,0.402943725 0.402943725,9.13077564e-17 0.9,0 L4.1,0 Z"></path></clipPath><clipPath id="i3"><path d="M5.1,0 C5.59705627,4.63803756e-16 6,0.402943725 6,0.9 C6,1.39705627 5.59705627,1.8 5.1,1.8 L0.9,1.8 C0.402943725,1.8 6.08718376e-17,1.39705627 0,0.9 C-6.08718376e-17,0.402943725 0.402943725,9.13077564e-17 0.9,0 L5.1,0 Z"></path></clipPath></defs><g transform="translate(-23.0 -165.0)"><g clip-path="url(#i0)"><g transform="translate(9.0 155.0)"><g transform="translate(14.0 10.0)"><g transform="translate(5.0 3.0)"><g clip-path="url(#i1)"><polygon points="0,0 14,0 14,17 0,17 0,0" stroke="none" fill=""></polygon></g></g><g transform="translate(9.0 7.999999999999977)"><g clip-path="url(#i2)"><polygon points="0,0 5,0 5,1.8 0,1.8 0,0" stroke="none" fill=""></polygon></g></g><g transform="translate(9.0 11.99999999999998)"><g clip-path="url(#i3)"><polygon points="0,0 6,0 6,1.8 0,1.8 0,0" stroke="none" fill=""></polygon></g></g></g></g></g></g></svg>