<?xml version="1.0" encoding="UTF-8"?><svg version="1.1" width="24px" height="24px" viewBox="0 0 24.0 24.0" xmlns="http://www.w3.org/2000/svg" xmlns:xlink="http://www.w3.org/1999/xlink"><defs><clipPath id="i0"><path d="M1440,0 L1440,1258 L0,1258 L0,0 L1440,0 Z"></path></clipPath><clipPath id="i1"><path d="M9.2,0 L11.2,2.4 L14.4,2.8 L16,5.2 L14.4,8 L16,10.8 L14.4,13.2 L11.2,13.6 L9.2,16 L6.8,16 L4.8,13.6 L1.6,13.2 L0,10.8 L1.6,8 L0,5.2 L1.6,2.8 L4.8,2.4 L6.8,0 L9.2,0 Z M8.4476875,1.59921875 L7.5516875,1.59921875 L5.6236875,3.91121875 L2.5276875,4.29521875 L1.8796875,5.26321875 L3.4396875,7.99921875 L1.8796875,10.7352188 L2.5276875,11.7032188 L5.6236875,12.0872187 L7.5516875,14.3992188 L8.4476875,14.3992188 L10.3756875,12.0872187 L13.4716875,11.7032188 L14.1196875,10.7352188 L12.5596875,7.99921875 L14.1196875,5.26321875 L13.4716875,4.29521875 L10.3756875,3.91121875 L8.4476875,1.59921875 Z M8,4.8 C9.768,4.8 11.2,6.232 11.2,8 C11.2,9.768 9.768,11.2 8,11.2 C6.232,11.2 4.8,9.768 4.8,8 C4.8,6.232 6.232,4.8 8,4.8 Z M8,6.4 C7.12,6.4 6.4,7.12 6.4,8 C6.4,8.88 7.12,9.6 8,9.6 C8.88,9.6 9.6,8.88 9.6,8 C9.6,7.12 8.88,6.4 8,6.4 Z"></path></clipPath></defs><g transform="translate(-23.0 -297.0)"><g clip-path="url(#i0)"><g transform="translate(9.0 287.0)"><g transform="translate(14.0 10.0)"><g transform="translate(4.0 4.0)"><g clip-path="url(#i1)"><polygon points="0,0 16,0 16,16 0,16 0,0" stroke="none" fill=""></polygon></g></g></g></g></g></g></svg>